<?xml version="1.0" encoding="UTF-8" standalone="no"?>
<svg
   version="1.2"
   viewBox="0 0 743.99023 723.02197"
   width="743.99023"
   height="723.02197"
   id="svg1"
   xml:space="preserve"
   xmlns:xlink="http://www.w3.org/1999/xlink"
   xmlns="http://www.w3.org/2000/svg"
   xmlns:svg="http://www.w3.org/2000/svg"
   xmlns:rdf="http://www.w3.org/1999/02/22-rdf-syntax-ns#"
   xmlns:cc="http://creativecommons.org/ns#"
   xmlns:dc="http://purl.org/dc/elements/1.1/"><defs
     id="defs1"><linearGradient
       id="linearGradient1"><stop
         style="stop-color:#55ddb9;stop-opacity:1;"
         offset="0"
         id="stop1" /><stop
         style="stop-color:#2a86f5;stop-opacity:1;"
         offset="1"
         id="stop2" /></linearGradient><linearGradient
       xlink:href="#linearGradient1"
       id="linearGradient3"
       gradientUnits="userSpaceOnUse"
       x1="176.81749"
       y1="199.04033"
       x2="834.90027"
       y2="834.14209"
       gradientTransform="translate(-140,-150.47804)" /></defs><title
     id="title1">couplecards</title><style
     id="style1">
		.s0 { fill: #fefefe } 
		.s1 { fill: #be71c9 } 
	</style><path
     id="Path 1"
     class="s1"
     d="m 165,0.17196 c -4.68,0.16 -14.13,0.78 -21,1.37 -6.88,0.6 -17,2 -22.5,3.11 -5.5,1.11 -14.28,3.39 -19.5,5.07 -5.22,1.67 -13.55,4.93 -18.5,7.25 -4.95,2.31 -12.15,6.24 -16,8.72 -3.85,2.48 -10.38,7.22 -14.5,10.53 -4.13,3.31 -9.94,8.67 -12.92,11.91 -2.99,3.24 -8.1,9.49 -11.37,13.89 -3.27,4.4 -8.57,13.4 -11.79,20 -3.22,6.6 -7.01,15.6 -8.42,20 -1.41,4.4 -3.43,12.27 -4.47,17.5 -1.05,5.23 -2.38,15.24 -2.97,22.25 -0.7,8.48 -1.06,81.9 -1.06,219 0.01,133.65 0.38,211.18 1.05,220.25 0.58,7.7 1.91,18.27 2.96,23.5 1.05,5.23 3.55,14.23 5.55,20 2.01,5.77 5.13,13.42 6.93,17 1.8,3.58 6.1,10.77 9.55,16 3.92,5.92 10.46,13.68 17.37,20.6 7.02,7.02 14.58,13.4 20.59,17.35 5.22,3.44 12.2,7.62 15.5,9.29 3.3,1.67 9.94,4.55 14.75,6.4 4.81,1.85 13.14,4.47 18.5,5.83 5.36,1.35 15.37,3.26 22.25,4.25 11.7,1.67 26.81,1.78 235,1.78 178.88,0 224.85,-0.26 234.5,-1.33 6.6,-0.74 16.27,-2.18 21.5,-3.22 5.23,-1.03 14.23,-3.51 20,-5.52 5.77,-2 13.87,-5.34 18,-7.42 4.12,-2.07 11.55,-6.47 16.5,-9.76 4.95,-3.3 12.78,-9.54 17.41,-13.87 4.62,-4.34 10.73,-10.8 13.57,-14.38 2.84,-3.58 6.82,-9.09 8.84,-12.25 2.03,-3.16 5.21,-8.79 7.07,-12.5 1.87,-3.71 5.04,-11.48 7.05,-17.25 2,-5.77 4.49,-14.77 5.53,-20 1.04,-5.23 2.37,-15.01 2.96,-21.75 0.72,-8.23 1.07,-80.55 1.06,-220.5 0,-129.2 -0.38,-212.62 -1,-219.75 -0.54,-6.32 -1.93,-16.45 -3.08,-22.5 -1.16,-6.05 -3.43,-15.05 -5.07,-20 -1.63,-4.95 -4.91,-13.05 -7.29,-18 -2.38,-4.95 -7.16,-13.28 -10.63,-18.5 -3.8,-5.73 -10.5,-13.7 -16.86,-20.06 -6.62,-6.63 -14.29,-13.04 -20.56,-17.2 -5.5,-3.64 -13.83,-8.4 -18.5,-10.56 -4.67,-2.16 -12.77,-5.29 -18,-6.96 -5.23,-1.66 -14.23,-3.96 -20,-5.11 -5.77,-1.15 -14.33,-2.61 -19,-3.26 -6.24,-0.86 -64.48,-1.21 -219.5,-1.33 -116.05,-0.09 -214.82,-0.03 -219.5,0.13 z"
     style="fill:url(#linearGradient3)" /><metadata
     id="metadata4"><rdf:RDF><cc:Work
         rdf:about=""><dc:title>couplecards</dc:title></cc:Work></rdf:RDF></metadata><path
     id="Path 2-0"
     fill-rule="evenodd"
     class="s0"
     d="m 262.29128,108.47563 c 2.9417,0.22248 7.7704,0.93112 10.712,1.58208 2.9417,0.6592 7.3996,1.95288 9.888,2.89224 2.4885,0.93112 6.386,2.6368 8.652,3.79041 2.266,1.1536 5.7845,3.23832 7.8281,4.64736 2.0435,1.4008 6.2624,4.96872 9.3771,7.91864 3.1229,2.95816 7.2512,7.59728 9.1711,10.31649 1.9282,2.7192 4.6638,7.25944 6.0729,10.094 1.4173,2.83456 3.5597,8.39656 4.7792,12.36001 2.0188,6.592 2.2083,8.4048 2.2248,21.21801 0.016,12.92856 -0.1483,14.56832 -2.2083,21.21801 -1.2196,3.96344 -3.4856,9.71496 -5.0182,12.772 -1.5409,3.05704 -4.4331,7.78681 -6.4354,10.50601 -2.0024,2.7192 -5.6609,6.93808 -8.1247,9.36888 -2.4637,2.43904 -6.7073,6.02344 -9.4265,7.97633 -2.7192,1.95288 -7.7292,4.84512 -11.1241,6.4272 -3.4031,1.57384 -9.3276,3.708 -13.184,4.738 -5.4466,1.45848 -9.204,1.87872 -16.892,1.87048 -6.6249,0 -11.7914,-0.46968 -15.656,-1.43376 -3.1724,-0.79104 -8.5531,-2.5544 -11.948,-3.92224 -3.4031,-1.36784 -9.1464,-4.45784 -12.772,-6.86392 -3.6256,-2.41433 -9.4678,-7.39129 -12.978,-11.06633 -3.5102,-3.67504 -8.067,-9.5584 -10.1105,-13.06865 -2.0517,-3.51024 -4.8369,-9.81384 -6.18,-14.008 -1.3513,-4.19416 -2.8757,-10.30825 -3.3866,-13.59601 -0.5274,-3.4196 -0.7251,-9.8468 -0.4615,-15.03801 0.2637,-4.9852 1.236,-12.0304 2.1836,-15.656 0.9394,-3.6256 2.9252,-9.18761 4.4167,-12.36001 1.4997,-3.1724 3.9717,-7.622 5.4961,-9.888 1.5326,-2.266 5.4054,-6.84745 8.6108,-10.18465 3.1971,-3.3372 7.8609,-7.4572 10.3494,-9.16288 2.4885,-1.69744 7.2183,-4.43312 10.506,-6.08113 3.2878,-1.648 8.8498,-3.7904 12.36,-4.75448 3.5103,-0.96408 8.9816,-2.03528 12.154,-2.38136 3.1724,-0.34608 8.1824,-0.44496 11.124,-0.23072 z m 229.4841,16.82609 c 1.8128,-0.0577 6.452,0.2884 10.3,0.77456 3.8481,0.47792 10.3413,1.96936 14.4201,3.30424 4.0788,1.34312 10.3824,4.26008 14.008,6.48488 3.6256,2.22481 8.8992,6.02345 11.7173,8.43777 2.8098,2.40608 7.177,6.97928 9.6902,10.15168 2.5132,3.1724 5.8339,8.18233 7.383,11.12401 1.5492,2.94168 3.7245,8.14112 4.8452,11.536 1.1124,3.40312 2.4637,9.69849 2.9911,14.00801 0.7004,5.69384 0.7334,9.96216 0.099,15.65601 -0.4697,4.30952 -1.6233,10.61312 -2.5544,14.008 -0.9394,3.40313 -3.329,9.51721 -5.3148,13.59601 -1.9859,4.0788 -5.8587,10.20112 -8.5943,13.59601 -2.7357,3.40312 -7.5396,8.22352 -10.6791,10.712 -3.1312,2.48848 -8.9816,6.27064 -12.9945,8.38833 -4.0128,2.12592 -10.6378,4.87808 -14.7166,6.11408 -6.5508,1.98584 -8.8086,2.24952 -19.364,2.3072 -10.1352,0.0412 -12.9451,-0.23072 -18.54,-1.84576 -3.6256,-1.04648 -9.1877,-3.09824 -12.3601,-4.56496 -3.1724,-1.45848 -7.622,-3.91401 -9.888,-5.44665 -2.266,-1.53264 -6.6661,-5.22416 -9.7726,-8.1988 -3.1147,-2.97464 -7.2347,-7.63024 -9.1711,-10.34944 -1.9364,-2.71921 -4.6803,-7.25945 -6.0894,-10.09401 -1.4173,-2.83456 -3.5432,-8.39656 -4.738,-12.36001 -1.7634,-5.8916 -2.233,-9.40184 -2.5462,-19.158 -0.2801,-8.69321 -0.049,-13.52185 0.8405,-17.71601 0.6757,-3.1724 2.3731,-8.73441 3.7657,-12.36001 1.4008,-3.6256 3.947,-8.95688 5.6527,-11.85736 1.7056,-2.89225 5.5125,-7.86097 8.4624,-11.03337 2.95,-3.18064 7.5808,-7.47368 10.3,-9.55016 2.7192,-2.06824 7.9104,-5.32305 11.536,-7.22649 3.6256,-1.90344 9.1877,-4.23536 12.3601,-5.18296 3.1724,-0.9476 7.9928,-2.04352 10.712,-2.43904 2.7192,-0.39552 6.4272,-0.75808 8.24,-0.81576 z m -173.864,152.80263 6.18,1.8952 c 3.3948,1.03824 8.9568,3.18888 12.36,4.77096 3.3949,1.58208 8.7756,4.59793 11.948,6.69913 3.1724,2.10944 9.476,7.55608 14.008,12.10456 5.3807,5.3972 10.5966,11.77497 15.038,18.35873 3.741,5.55376 6.9381,10.18465 7.1194,10.30001 0.173,0.11536 1.994,-2.01881 4.0458,-4.73801 2.0518,-2.7192 6.6414,-7.81976 10.1929,-11.32176 3.5432,-3.51024 8.6767,-8.04225 11.3959,-10.06929 2.7192,-2.02704 7.9104,-5.16648 11.536,-6.97104 3.6256,-1.80456 9.9292,-4.23536 21.424,-7.51488 l 46.968,0.008 c 38.794,0.008 48.2618,0.23072 54.3841,1.29368 4.0788,0.70864 10.7532,2.39784 14.832,3.76568 4.0788,1.36784 10.3247,4.0376 13.8762,5.9328 3.5596,1.90344 9.4924,5.71856 13.184,8.48721 3.6997,2.76864 9.2864,7.77032 12.4094,11.124 3.1312,3.34544 7.3748,8.68497 9.4348,11.85737 2.0518,3.1724 4.7792,8.08344 6.0482,10.918 1.2772,2.83456 3.2136,8.57785 4.3095,12.77201 1.0959,4.19416 2.5874,11.88208 3.3125,17.09801 1.1453,8.20704 1.2937,18.81192 0.8734,148.73207 l -1.8457,4.532 c -1.0218,2.48848 -3.4279,6.32832 -5.356,8.5284 -2.1095,2.39784 -5.3231,4.85336 -8.0423,6.13056 -3.9717,1.87048 -5.8586,2.18361 -25.956,2.84281 l -0.7004,-6.89689 c -0.3873,-3.7904 -1.4255,-9.67376 -2.3072,-13.07688 -0.8899,-3.39489 -3.057,-9.14641 -4.8369,-12.77201 -1.7716,-3.6256 -5.3972,-9.5584 -8.0422,-13.18401 -2.6533,-3.6256 -7.0288,-8.59432 -9.715,-11.03336 -2.6862,-2.44728 -7.1111,-5.94928 -9.8303,-7.7868 -2.7192,-1.82929 -7.9104,-4.71329 -11.536,-6.39425 -3.6256,-1.68096 -8.9075,-3.64208 -16.892,-5.6856 l 5.9822,-5.974 c 3.2878,-3.28776 7.7209,-8.75089 9.8468,-12.15401 2.1259,-3.39488 4.8122,-8.68496 5.9658,-11.742 1.1536,-3.05705 2.6945,-8.98985 3.4278,-13.18401 0.9559,-5.48784 1.1701,-9.69849 0.7663,-15.03801 -0.3131,-4.0788 -1.4172,-10.7532 -2.4555,-14.832 -1.0382,-4.07881 -3.263,-10.38241 -4.944,-14.00801 -1.6727,-3.6256 -4.6473,-8.81681 -6.6002,-11.53601 -1.9611,-2.7192 -5.9246,-7.19352 -8.8086,-9.93744 -2.884,-2.74392 -6.9051,-6.12232 -8.9486,-7.51488 -2.0436,-1.38433 -6.3943,-3.86457 -9.6821,-5.51257 -3.2877,-1.648 -8.8497,-3.81512 -12.36,-4.8204 -5.2571,-1.50792 -8.5036,-1.83752 -18.334,-1.854 -9.3359,-0.0165 -13.1181,0.32136 -17.304,1.54088 -2.9499,0.85696 -7.9516,2.73568 -11.124,4.1612 -3.1724,1.43376 -8.1741,4.2436 -11.124,6.24593 -2.9499,2.01056 -7.9021,6.06464 -11.0086,9.0228 -3.1065,2.94992 -7.3584,7.96808 -9.4513,11.14048 -2.0847,3.17241 -4.9523,8.55313 -6.3695,11.94801 -1.4173,3.40312 -3.2878,8.96512 -4.153,12.36001 -1.1783,4.6556 -1.5574,9.0228 -1.5409,17.716 0.016,8.50369 0.4203,13.05217 1.5409,17.30401 0.8322,3.1724 2.6945,8.36361 4.1365,11.53601 1.442,3.1724 3.8975,7.622 5.4631,9.87976 1.5656,2.266 5.3478,6.62497 13.9668,15.25225 l -5.562,1.76336 c -3.057,0.97232 -8.1576,3.0488 -11.33,4.63088 -3.1724,1.57384 -8.273,4.48256 -16.892,10.08577 l -5.562,-5.63617 c -3.057,-3.09824 -8.3471,-7.5808 -11.742,-9.96216 -3.4031,-2.38136 -9.3277,-5.90808 -13.184,-7.83624 -3.8563,-1.9364 -8.858,-4.19417 -11.124,-5.01817 -2.266,-0.824 -4.3095,-1.61504 -4.532,-1.75512 -0.2225,-0.13184 1.0877,-1.82928 2.9169,-3.76568 1.8293,-1.9364 4.9605,-5.92456 6.9546,-8.87448 1.9941,-2.94992 4.8286,-7.95161 6.2954,-11.12401 1.4584,-3.1724 3.6832,-9.1052 4.9357,-13.184 2.0683,-6.73209 2.2825,-8.60257 2.299,-20.18801 0.017,-10.75321 -0.2802,-13.87617 -1.8705,-19.77601 -1.0382,-3.84808 -3.263,-9.97041 -4.9522,-13.59601 -1.6975,-3.6256 -4.7051,-9.00632 -6.6909,-11.948 -1.9941,-2.94169 -5.4961,-7.35833 -7.7868,-9.81385 -2.2907,-2.44728 -7.1276,-6.65792 -10.7532,-9.36064 -3.6256,-2.70272 -9.0064,-6.11409 -11.948,-7.58905 -2.9417,-1.46672 -7.7704,-3.44432 -10.712,-4.39192 -2.9417,-0.9476 -7.5808,-2.10944 -10.3,-2.5956 -2.7192,-0.47792 -8.2812,-0.85696 -12.3601,-0.84872 -4.0788,0.008 -10.7532,0.7004 -14.832,1.54088 -4.0788,0.84048 -10.0116,2.5544 -13.184,3.80688 -3.1724,1.24424 -7.9928,3.5844 -10.712,5.19944 -2.7192,1.6068 -7.1276,4.62265 -9.7891,6.69089 -2.6615,2.06824 -7.0864,6.36128 -9.8221,9.53368 -2.7439,3.1724 -6.6579,8.36361 -8.7014,11.53601 -2.0435,3.1724 -4.771,8.3636 -6.0647,11.536 -1.2936,3.1724 -2.9169,7.81153 -3.6091,10.30001 -0.6839,2.48848 -1.4667,9.3524 -1.7386,15.244 -0.3296,7.06993 -0.1319,12.95329 0.5603,17.30401 0.585,3.6256 1.887,8.99809 2.8922,11.94801 1.0136,2.94992 2.8676,7.39952 4.1283,9.888 1.2607,2.48848 3.7986,6.75681 5.6361,9.47601 1.8376,2.7192 5.2242,6.88864 7.5149,9.27 3.7492,3.88928 3.9964,4.37544 2.5132,4.8616 -0.9064,0.29664 -4.6144,1.69744 -8.24,3.12297 -3.6256,1.42552 -10.3906,5.08408 -15.038,8.1164 -4.6474,3.04056 -11.3218,8.25648 -14.832,11.60192 -3.5102,3.33721 -8.2977,8.80033 -10.6378,12.15401 -2.3402,3.34544 -5.7433,9.04752 -7.5726,12.67313 -1.821,3.6256 -4.2766,9.9292 -5.4549,14.008 -1.1783,4.0788 -2.5873,11.96449 -4.1447,27.6205 l -9.476,-0.0247 c -5.2077,-0.008 -11.8903,-0.52737 -14.832,-1.13713 -2.9417,-0.618 -6.8392,-1.87048 -8.652,-2.77688 -1.8128,-0.9064 -4.944,-3.4608 -6.9628,-5.66088 -2.0188,-2.20832 -4.6144,-6.0564 -7.8692,-13.07689 l -0.5933,-74.98403 c -0.3543,-45.69082 -0.2802,-78.52724 0.1895,-84.04804 0.4285,-4.9852 1.6645,-12.58249 2.7439,-16.89201 1.0877,-4.30952 3.3372,-10.97568 5.01,-14.832 1.6644,-3.85633 5.15,-10.14345 7.7291,-13.99153 2.5873,-3.83984 7.6632,-9.97041 11.2888,-13.62897 3.6256,-3.65856 9.9292,-8.858 14.008,-11.55248 4.0788,-2.68624 10.5637,-6.24593 14.42,-7.91041 3.8563,-1.65624 9.9704,-3.76568 13.596,-4.68856 3.6256,-0.91464 7.5149,-1.83752 8.652,-2.04352 1.1289,-0.206 28.3868,-0.31312 119.0681,-0.10712 z m -28.2221,63.05251 c 2.6039,-0.033 7.6138,0.51912 11.1241,1.236 3.5102,0.71688 8.8003,2.29896 11.742,3.51848 2.9416,1.21952 7.7703,3.914 10.712,5.99048 2.9416,2.07649 7.4984,6.14705 10.1187,9.04753 2.6285,2.90048 6.0234,7.67968 7.5643,10.6296 1.5327,2.94993 3.5844,8.14113 4.5485,11.53601 0.9723,3.40312 1.9776,9.69848 2.2413,14.00801 0.3708,5.94104 0.1236,9.41832 -0.9888,14.42 -0.8158,3.64208 -3.0735,9.73145 -5.0347,13.59601 -1.9528,3.84808 -5.2406,9.13816 -7.2924,11.742 -2.06,2.60385 -5.8751,6.42721 -8.4789,8.48721 -2.6039,2.06824 -7.7044,5.18296 -11.33,6.92984 -3.6256,1.74688 -9.0064,3.75744 -11.948,4.48256 -2.9417,0.71688 -8.6933,1.30192 -12.7721,1.30192 -4.0788,-0.008 -9.7314,-0.56032 -12.566,-1.22776 -2.8345,-0.67568 -7.4654,-2.3896 -10.3,-3.81512 -2.8345,-1.41728 -7.1935,-3.96344 -9.682,-5.65264 -2.4884,-1.6892 -6.8474,-5.52904 -9.682,-8.53664 -3.4855,-3.69977 -6.1965,-7.67145 -8.3883,-12.26937 -1.7881,-3.74096 -3.8151,-9.0228 -4.5238,-11.74201 -0.8075,-3.1312 -1.2854,-8.72616 -1.3019,-15.244 -0.025,-8.33889 0.3296,-11.55249 1.8623,-16.89201 1.0382,-3.6256 3.2218,-8.99808 4.8616,-11.94801 1.6315,-2.94992 4.9604,-7.54784 7.3912,-10.22584 2.4308,-2.66976 7.0205,-6.6744 10.1929,-8.88273 3.1724,-2.20832 8.1824,-4.944 11.124,-6.08112 2.9417,-1.12888 7.7704,-2.57088 10.712,-3.20536 2.9417,-0.62624 7.4902,-1.17008 10.094,-1.20304 z m 183.5461,21.01201 c 3.3949,0.21424 8.4048,0.95584 11.124,1.66448 2.7192,0.7004 7.7209,2.60384 11.124,4.23536 4.7133,2.25776 7.7456,4.54024 12.7885,9.62433 q 6.6168,6.65792 9.6079,12.42592 c 1.648,3.1724 3.6668,7.99281 4.4826,10.71201 1.0382,3.46904 1.4914,7.77032 1.5161,14.42 0.025,7.67969 -0.3296,10.64609 -1.8869,15.65601 -1.0548,3.40312 -3.1477,8.40481 -4.6392,11.12401 -1.4997,2.7192 -4.7133,7.1276 -7.1441,9.78912 -2.4308,2.66152 -7.21,6.66616 -10.6049,8.88273 -3.4608,2.266 -8.9898,4.93576 -12.566,6.07288 -5.1994,1.65624 -8.1081,2.03528 -15.656,2.05176 -7.0946,0.0165 -10.6213,-0.38728 -15.038,-1.72216 -3.1724,-0.95584 -8.1741,-3.05704 -11.124,-4.68032 -3.1065,-1.70568 -7.7785,-5.41369 -11.124,-8.82505 -3.1724,-3.23832 -7.0699,-8.08344 -8.652,-10.76968 -1.5821,-2.68624 -3.535,-6.83921 -4.326,-9.22881 -0.791,-2.3896 -1.854,-7.02872 -2.3649,-10.31648 -0.5273,-3.45256 -0.6757,-8.58609 -0.3461,-12.15401 0.3132,-3.39488 1.475,-8.95688 2.5709,-12.36 1.0959,-3.39488 3.4279,-8.58609 5.183,-11.53601 1.7551,-2.94992 5.768,-7.76208 8.9157,-10.712 3.1559,-2.94992 8.2977,-6.69913 11.4371,-8.34713 3.1394,-1.63976 7.1935,-3.4608 9.0063,-4.0376 1.8128,-0.5768 5.15,-1.33488 7.416,-1.69744 2.266,-0.35432 6.8969,-0.47792 10.3,-0.27192 z m -135.548,115.32709 5.768,2.11768 c 3.1724,1.16185 8.3636,3.46081 11.536,5.10881 3.1724,1.648 8.1823,4.97696 11.124,7.39952 2.9417,2.42256 6.8969,6.22944 8.7756,8.46248 1.8787,2.24129 4.8781,6.47665 6.6662,9.42657 1.7963,2.94992 4.0128,7.39952 4.9357,9.888 0.9311,2.48848 2.1012,7.21825 2.6039,10.50601 0.552,3.5844 0.9228,18.74601 0.964,69.83403 l -2.2907,4.43312 c -1.8293,3.55144 -3.1971,4.95225 -11.3547,9.57489 l -82.4001,0.21424 c -73.1794,0.18952 -82.9109,0.0742 -86.932,-1.08768 -2.4885,-0.71688 -5.9575,-2.29896 -7.6962,-3.51024 -2.06,-1.44201 -4.0128,-3.93049 -8.034,-12.09633 l 0.2967,-32.96002 c 0.2801,-31.02361 0.4037,-33.31433 2.1012,-38.93401 0.9888,-3.28777 3.0488,-8.47897 4.5814,-11.53601 1.5327,-3.05704 4.2519,-7.416 6.0399,-9.682 1.7964,-2.266 5.0841,-5.85865 7.3089,-7.98457 2.2331,-2.11768 5.7186,-5.12528 7.7621,-6.6744 2.0435,-1.54912 5.7515,-3.9552 8.24,-5.34776 2.4885,-1.39256 6.8475,-3.30424 9.682,-4.24361 2.8346,-0.93936 7.0947,-2.04352 9.476,-2.44728 2.3814,-0.412 23.7889,-0.68392 90.8461,-0.46144 z m 176.3361,11.53601 5.768,2.08472 c 3.1724,1.14536 8.3636,3.51024 11.536,5.26536 3.6915,2.03528 8.3224,5.72681 12.8461,10.25881 4.326,4.326 8.2236,9.16288 10.0199,12.43416 1.6233,2.94992 3.7904,7.95161 4.8286,11.12401 1.7964,5.50432 1.9035,7.1688 2.2084,36.66802 0.2142,20.61648 0.025,32.06185 -0.5768,34.40201 -0.5109,2.00232 -2.2249,4.93576 -3.9882,6.84744 -1.9282,2.09297 -4.7215,3.95521 -7.416,4.94401 -4.1283,1.5244 -7.0205,1.59856 -63.6541,1.59856 -56.9384,0 -59.501,-0.0659 -63.654,-1.61504 -2.3814,-0.88992 -5.2983,-2.65328 -6.4931,-3.91401 -1.1866,-1.26896 -2.6698,-3.23008 -3.296,-4.35896 -0.8899,-1.62328 -1.2278,-10.20936 -1.5986,-40.78802 -0.4449,-36.67625 -0.5603,-39.04113 -2.266,-44.70202 -0.9888,-3.28776 -2.7274,-8.01752 -5.9163,-15.038 l 4.326,-3.39489 c 2.3814,-1.86224 6.5508,-4.532 9.27,-5.91632 2.7192,-1.39256 7.7209,-3.3784 11.124,-4.41664 6.1223,-1.86224 6.5591,-1.87872 86.9321,-1.4832 z"
     style="fill:#fefefd;stroke-width:0.824" /></svg>
